<svg width="21" height="21" viewBox="0 0 21 21" fill="none" xmlns="http://www.w3.org/2000/svg">
<path d="M10.5 0C6.22242 0 2.74249 3.47992 2.74249 7.7575C2.74249 9.16571 3.37404 10.6802 3.40051 10.7441C3.60449 11.2283 4.00696 11.9803 4.29719 12.4211L9.61609 20.4802C9.83376 20.8106 10.1559 21 10.5 21C10.8441 21 11.1662 20.8106 11.3839 20.4807L16.7033 12.4211C16.9939 11.9803 17.396 11.2283 17.5999 10.7441C17.6264 10.6807 18.2575 9.16617 18.2575 7.7575C18.2575 3.47992 14.7776 0 10.5 0ZM16.7585 10.39C16.5764 10.824 16.2018 11.5235 15.9412 11.9187L10.6218 19.9783C10.5169 20.1375 10.4836 20.1375 10.3786 19.9783L5.05925 11.9187C4.79869 11.5235 4.42404 10.8235 4.24197 10.3896C4.23421 10.3709 3.65514 8.97679 3.65514 7.7575C3.65514 3.98325 6.72574 0.912647 10.5 0.912647C14.2742 0.912647 17.3448 3.98325 17.3448 7.7575C17.3448 8.97862 16.7644 10.3763 16.7585 10.39Z" fill="#F8EEF0"/>
<path d="M10.5 3.65088C8.23525 3.65088 6.39307 5.49351 6.39307 7.75779C6.39307 10.0221 8.23525 11.8647 10.5 11.8647C12.7647 11.8647 14.6069 10.0221 14.6069 7.75779C14.6069 5.49351 12.7647 3.65088 10.5 3.65088ZM10.5 10.9521C8.73903 10.9521 7.30571 9.5192 7.30571 7.75779C7.30571 5.99638 8.73903 4.56353 10.5 4.56353C12.2609 4.56353 13.6942 5.99638 13.6942 7.75779C13.6942 9.5192 12.2609 10.9521 10.5 10.9521Z" fill="#F8EEF0"/>
</svg>
