<svg width="21" height="21" viewBox="0 0 21 21" fill="none" xmlns="http://www.w3.org/2000/svg">
<g clip-path="url(#clip0)">
<path d="M20.449 16.2011L16.1985 13.3665C15.6591 13.0097 14.9361 13.1271 14.5373 13.6363L13.2992 15.2282C13.14 15.438 12.8508 15.4989 12.6206 15.371L12.3851 15.2412C11.6044 14.8156 10.6329 14.2858 8.67567 12.3279C6.7184 10.3699 6.18754 9.39774 5.76198 8.61843L5.63284 8.38292C5.50321 8.15277 5.56292 7.8623 5.77281 7.70191L7.36365 6.46416C7.87266 6.06534 7.99023 5.34251 7.63382 4.80295L4.79924 0.552471C4.43397 0.00302564 3.70113 -0.161915 3.13565 0.178013L1.35825 1.2457C0.799785 1.57402 0.390059 2.10575 0.214989 2.72946C-0.425046 5.06151 0.0564462 9.08627 5.98528 15.0158C10.7015 19.7317 14.2126 20.9999 16.6258 20.9999C17.1812 21.0023 17.7344 20.93 18.2706 20.7851C18.8944 20.6102 19.4262 20.2004 19.7544 19.6418L20.8231 17.8655C21.1635 17.2999 20.9987 16.5666 20.449 16.2011ZM20.2201 17.5064L19.1538 19.2838C18.9182 19.687 18.5357 19.9834 18.0865 20.1111C15.9336 20.7021 12.1723 20.2126 6.48043 14.5206C0.788508 8.82873 0.298977 5.06783 0.890047 2.91462C1.01783 2.46483 1.31466 2.08184 1.71836 1.84587L3.49575 0.779582C3.74111 0.631948 4.05918 0.70351 4.21768 0.941939L5.75747 3.25369L7.04984 5.19204C7.20461 5.42609 7.15376 5.73977 6.93297 5.91295L5.34176 7.1507C4.85751 7.52098 4.71923 8.19095 5.01737 8.72268L5.14372 8.95225C5.59097 9.77252 6.14702 10.793 8.17707 12.8227C10.2071 14.8524 11.2272 15.4085 12.0471 15.8557L12.277 15.9824C12.8087 16.2805 13.4787 16.1422 13.849 15.658L15.0868 14.0668C15.26 13.8461 15.5736 13.7953 15.8077 13.9499L20.0578 16.7845C20.2964 16.9428 20.3679 17.2611 20.2201 17.5064Z" fill="#F8EEF0"/>
<path d="M11.8994 3.50211C15.1834 3.50576 17.8448 6.16716 17.8485 9.45124C17.8485 9.64452 18.0051 9.80118 18.1984 9.80118C18.3917 9.80118 18.5484 9.64452 18.5484 9.45124C18.5443 5.78077 15.5698 2.80627 11.8994 2.80225C11.7061 2.80225 11.5494 2.9589 11.5494 3.15218C11.5494 3.34546 11.7061 3.50211 11.8994 3.50211Z" fill="#F8EEF0"/>
<path d="M11.8994 5.60172C14.0243 5.60423 15.7463 7.32622 15.7488 9.45117C15.7488 9.64444 15.9055 9.8011 16.0987 9.8011C16.292 9.8011 16.4487 9.64444 16.4487 9.45117C16.4458 6.93982 14.4107 4.90473 11.8994 4.90186C11.7061 4.90186 11.5494 5.05851 11.5494 5.25179C11.5494 5.44507 11.7061 5.60172 11.8994 5.60172Z" fill="#F8EEF0"/>
<path d="M11.8994 7.70133C12.8652 7.70248 13.6479 8.48519 13.6491 9.45109C13.6491 9.64436 13.8058 9.80102 13.999 9.80102C14.1923 9.80102 14.349 9.64436 14.349 9.45109C14.3474 8.09884 13.2516 7.00298 11.8994 7.00146C11.7061 7.00146 11.5494 7.15812 11.5494 7.3514C11.5494 7.54468 11.7061 7.70133 11.8994 7.70133Z" fill="#F8EEF0"/>
</g>
<defs>
<clipPath id="clip0">
<rect width="21" height="21" fill="white"/>
</clipPath>
</defs>
</svg>
