<svg width="21" height="21" viewBox="0 0 21 21" fill="none" xmlns="http://www.w3.org/2000/svg">
<path d="M10.5 9.5773C10.4424 9.5773 10.3861 9.58288 10.3315 9.59301L7.5159 4.71637C7.431 4.56921 7.24278 4.51884 7.0957 4.60374C6.94858 4.68869 6.89817 4.87683 6.98311 5.02395L9.79892 9.90104C9.66082 10.0624 9.57715 10.2716 9.57715 10.5001C9.57715 10.9011 9.83435 11.2431 10.1924 11.3701V18.2316C10.1924 18.4015 10.3301 18.5392 10.5 18.5392C10.6699 18.5392 10.8076 18.4015 10.8076 18.2316V11.3701C11.1656 11.2431 11.4228 10.9012 11.4228 10.5002C11.4228 9.99131 11.0088 9.5773 10.5 9.5773ZM10.5 10.8078C10.3304 10.8078 10.1924 10.6698 10.1924 10.5002C10.1924 10.3305 10.3304 10.1925 10.5 10.1925C10.6696 10.1925 10.8076 10.3305 10.8076 10.5002C10.8076 10.6698 10.6696 10.8078 10.5 10.8078Z" fill="#F8EEF0"/>
<path d="M17.9246 3.07535C15.9415 1.09221 13.3046 0 10.5 0C7.69535 0 5.05854 1.09221 3.07535 3.07535C1.09216 5.0585 0 7.69535 0 10.5C0 13.3046 1.09221 15.9415 3.07535 17.9246C5.0585 19.9078 7.69535 21 10.5 21C13.3046 21 15.9415 19.9078 17.9246 17.9246C19.9078 15.9415 21 13.3046 21 10.5C21 7.69535 19.9078 5.05854 17.9246 3.07535ZM10.5 20.3848C5.04952 20.3848 0.615234 15.9505 0.615234 10.5C0.615234 5.04952 5.04952 0.615234 10.5 0.615234C15.9505 0.615234 20.3848 5.04952 20.3848 10.5C20.3848 15.9505 15.9505 20.3848 10.5 20.3848Z" fill="#F8EEF0"/>
<path d="M10.5 3.07617C10.6699 3.07617 10.8076 2.93845 10.8076 2.76855C10.8076 2.59866 10.6699 2.46094 10.5 2.46094C10.3301 2.46094 10.1924 2.59866 10.1924 2.76855C10.1924 2.93845 10.3301 3.07617 10.5 3.07617Z" fill="#F8EEF0"/>
<path d="M6.63428 4.11182C6.80417 4.11182 6.94189 3.97409 6.94189 3.8042C6.94189 3.63431 6.80417 3.49658 6.63428 3.49658C6.46439 3.49658 6.32666 3.63431 6.32666 3.8042C6.32666 3.97409 6.46439 4.11182 6.63428 4.11182Z" fill="#F8EEF0"/>
<path d="M3.8042 6.94189C3.97409 6.94189 4.11182 6.80417 4.11182 6.63428C4.11182 6.46439 3.97409 6.32666 3.8042 6.32666C3.63431 6.32666 3.49658 6.46439 3.49658 6.63428C3.49658 6.80417 3.63431 6.94189 3.8042 6.94189Z" fill="#F8EEF0"/>
<path d="M2.76855 10.8076C2.93845 10.8076 3.07617 10.6699 3.07617 10.5C3.07617 10.3301 2.93845 10.1924 2.76855 10.1924C2.59866 10.1924 2.46094 10.3301 2.46094 10.5C2.46094 10.6699 2.59866 10.8076 2.76855 10.8076Z" fill="#F8EEF0"/>
<path d="M3.8042 14.6733C3.97409 14.6733 4.11182 14.5356 4.11182 14.3657C4.11182 14.1958 3.97409 14.0581 3.8042 14.0581C3.63431 14.0581 3.49658 14.1958 3.49658 14.3657C3.49658 14.5356 3.63431 14.6733 3.8042 14.6733Z" fill="#F8EEF0"/>
<path d="M6.63428 17.5034C6.80417 17.5034 6.94189 17.3657 6.94189 17.1958C6.94189 17.0259 6.80417 16.8882 6.63428 16.8882C6.46439 16.8882 6.32666 17.0259 6.32666 17.1958C6.32666 17.3657 6.46439 17.5034 6.63428 17.5034Z" fill="#F8EEF0"/>
<path d="M14.3657 17.5034C14.5356 17.5034 14.6733 17.3657 14.6733 17.1958C14.6733 17.0259 14.5356 16.8882 14.3657 16.8882C14.1958 16.8882 14.0581 17.0259 14.0581 17.1958C14.0581 17.3657 14.1958 17.5034 14.3657 17.5034Z" fill="#F8EEF0"/>
<path d="M17.1958 14.6733C17.3657 14.6733 17.5034 14.5356 17.5034 14.3657C17.5034 14.1958 17.3657 14.0581 17.1958 14.0581C17.0259 14.0581 16.8882 14.1958 16.8882 14.3657C16.8882 14.5356 17.0259 14.6733 17.1958 14.6733Z" fill="#F8EEF0"/>
<path d="M18.2314 10.8076C18.4013 10.8076 18.5391 10.6699 18.5391 10.5C18.5391 10.3301 18.4013 10.1924 18.2314 10.1924C18.0616 10.1924 17.9238 10.3301 17.9238 10.5C17.9238 10.6699 18.0616 10.8076 18.2314 10.8076Z" fill="#F8EEF0"/>
<path d="M17.1958 6.94189C17.3657 6.94189 17.5034 6.80417 17.5034 6.63428C17.5034 6.46439 17.3657 6.32666 17.1958 6.32666C17.0259 6.32666 16.8882 6.46439 16.8882 6.63428C16.8882 6.80417 17.0259 6.94189 17.1958 6.94189Z" fill="#F8EEF0"/>
<path d="M14.3657 4.11182C14.5356 4.11182 14.6733 3.97409 14.6733 3.8042C14.6733 3.63431 14.5356 3.49658 14.3657 3.49658C14.1958 3.49658 14.0581 3.63431 14.0581 3.8042C14.0581 3.97409 14.1958 4.11182 14.3657 4.11182Z" fill="#F8EEF0"/>
<path d="M17.0545 3.94546C15.3038 2.19466 12.9759 1.23047 10.5 1.23047C8.2601 1.23047 6.09759 2.04045 4.4109 3.5111C4.28285 3.62279 4.26956 3.81708 4.38117 3.94513C4.49285 4.07322 4.68718 4.08647 4.81519 3.97482C6.38987 2.60187 8.40874 1.8457 10.5 1.8457C15.272 1.8457 19.1543 5.728 19.1543 10.5C19.1543 15.272 15.272 19.1543 10.5 19.1543C5.728 19.1543 1.8457 15.272 1.8457 10.5C1.8457 8.40874 2.60187 6.38987 3.97482 4.81519C4.08651 4.68714 4.07318 4.49285 3.94513 4.38117C3.81716 4.26952 3.62283 4.28277 3.5111 4.4109C2.04045 6.09759 1.23047 8.2601 1.23047 10.5C1.23047 12.9759 2.19466 15.3038 3.94546 17.0545C5.69625 18.8053 8.02405 19.7695 10.5 19.7695C12.9759 19.7695 15.3038 18.8053 17.0545 17.0545C18.8053 15.3038 19.7695 12.9759 19.7695 10.5C19.7695 8.02405 18.8053 5.69625 17.0545 3.94546Z" fill="#F8EEF0"/>
</svg>
